# xmcd
#
# Track frame offsets:
#	150
#	5992
#	28378
#	47745
#	71386
#	89968
#	107192
#	120403
#	142092
#	159101
#	175940
#	199339
#	229581
#	249077
#	256619
#	275208
#	289689
#	309676
#	322937
#	338759
#
# Disc length: 4791 seconds
#
# Revision: 0
# Processed by: cddbd v1.5.2PL0 Copyright (c) Steve Scherf et al.
# Submitted via: audiograbber 1.83.01
#
DISCID=2512b514
DTITLE=Snoop Dogg Presents Tha Eastsidaz - Duces 'N Trayz - The Old Fashioned W
DTITLE=ay
DYEAR=2001
DGENRE=Hip-Hop
TTITLE0=Intro (featuring Snoop Dogg)
TTITLE1=I Luv It (background vocals Kokane, Sir Dogg and Snoopy Collins)
TTITLE2=Eastside Ridax (featuring Nate Dogg, Soopafly and LaToiya Williams)
TTITLE3=Crip Hop (featuring LaToiya Williams)
TTITLE4=I Don't Know (featuring Soopafly, Suga Free and LaToiya Williams)
TTITLE5=Welcome 2 Tha House (featuring Nate Dogg and Tha Angels)
TTITLE6=Friends (featuring Kokane)
TTITLE7=Gang Bang 4 Real (featuring Bad Azz)
TTITLE8=I Pledge Alligence (featuring Supafly and Kokane)
TTITLE9=Now Is The Time (featuring Kokane)
TTITLE10=Cool (featuring Nate Dogg and Butch Cassidy, background vocals Kokane)
TTITLE11=Dogghouse In Your Mouth (featuring Kurupt, Soopafly, RBX, Suga Free, R
TTITLE11=uff Dogg, King Lou and Mixmaster Spade)
TTITLE12=Connected (featuring Mobb Deep and Kokane)
TTITLE13=Mac Bible Chapter 211 Verse 20-21 (featuring Mac Minista)
TTITLE14=Break A B***h Til I Die
TTITLE15=Sticky Fingers (featuring Kokane and Ric Rock)
TTITLE16=There Comes A Time (featuring Daddy V)
TTITLE17=Late Night (featuring Kokane)
TTITLE18=So Low (featuring Lil' Mo, background vocals Kokane)
TTITLE19=Everywhere I Go (featuring Kokane)
EXTD=
EXTT0=
EXTT1=
EXTT2=
EXTT3=
EXTT4=
EXTT5=
EXTT6=
EXTT7=
EXTT8=
EXTT9=
EXTT10=
EXTT11=
EXTT12=
EXTT13=
EXTT14=
EXTT15=
EXTT16=
EXTT17=
EXTT18=
EXTT19=
PLAYORDER=
